<svg xmlns="http://www.w3.org/2000/svg" viewBox="0 0 24 24" width="24" height="24">
  <rect width="24" height="24" rx="4" fill="#25D366"/>
  <path d="M17.2 14.8c-.3-.1-1.8-.9-2-.9-.2 0-.4 0-.6.1-.2.1-.4.2-.6.4-.2.2-.8.8-1.1 1-.3.2-.6.2-1 .1-.3-.1-1.1-.4-2.1-1.3-.8-.7-1.3-1.5-1.5-1.9-.2-.4 0-.6.2-.8.2-.2.4-.6.7-.9.2-.3.3-.5.4-.7.1-.2 0-.4 0-.6-.1-.2-.6-1.4-.8-1.9-.2-.5-.4-.4-.6-.4-.2 0-.4 0-.6 0-.2 0-.5.1-.8.3-.3.2-1 1-1 2.4 0 1.4 1 2.7 1.1 2.9.1.2 1.9 3 4.8 4.3 3 .1 3-.9 3.3-1 .3-.1 1.1-.5 1.2-1 .1-.5.1-.9.1-1 .1-.1.1-.3.1-.4.1-.2.1-.3.1-.5.0-.2-.1-.4-.4-.5z" fill="#fff"/>
</svg>
