<svg xmlns="http://www.w3.org/2000/svg" viewBox="0 0 24 24" width="24" height="24">
  <rect width="24" height="24" rx="4" fill="#1DA1F2"/>
  <path d="M19 7.5c-.6.3-1.2.5-1.8.6.6-.4 1.2-1 1.6-1.8-.6.4-1.4.7-2.2.9C15.7 6 14.8 5.5 13.8 5.5c-1.6 0-2.8 1.3-2.8 2.8 0 .2 0 .4.1.6C8 8.6 6.5 7.7 5.5 6.5c-.3.5-.5 1-.5 1.6 0 1.1.6 2.1 1.6 2.7-.5 0-1-.2-1.4-.4 0 1.6 1.1 3 2.6 3.3-.3.1-.6.1-.9.1-.2 0-.4 0-.6-.1.4 1.2 1.6 2 3 2-1.1.9-2.4 1.5-3.9 1.5-.3 0-.6 0-.9-.1 1.4.9 3 1.4 4.7 1.4 5.6 0 8.7-4.6 8.7-8.7v-.4c.6-.4 1.1-1 1.5-1.6-.6.3-1.3.5-2 .6z" fill="#fff"/>
</svg>
