<?xml version="1.0" encoding="UTF-8"?>
<svg width="120" height="120" viewBox="0 0 120 120" xmlns="http://www.w3.org/2000/svg" aria-hidden="true">
  <defs>
    <linearGradient id="g1" x1="0" x2="1" y1="0" y2="1">
      <stop offset="0%" stop-color="#34d399" stop-opacity="1"/>
      <stop offset="100%" stop-color="#0f9d58" stop-opacity="1"/>
    </linearGradient>
  </defs>
  <!-- circle badge background -->
  <circle cx="60" cy="60" r="58" fill="url(#g1)" opacity="0.15" />

  <!-- open book (simple) -->
  <g transform="translate(12,56)">
    <path d="M0 8 C12 0 36 0 60 8 C84 0 108 0 120 8 L120 28 C96 20 72 20 60 28 C48 20 24 20 0 28 Z" fill="#ffffff" fill-opacity="0.95" />
    <path d="M0 8 C12 16 36 16 60 8 C84 16 108 16 120 8" stroke="#0b3a2a" stroke-width="1" fill="none" opacity="0.6"/>
  </g>

  <!-- tree trunk -->
  <g transform="translate(56,20)">
    <path d="M8 30 C10 24 10 18 8 12 C8 9 6 8 6 5" stroke="#5b3b22" stroke-width="3" stroke-linecap="round" fill="none" />
    <path d="M14 30 C12 24 12 18 14 12 C14 9 16 8 16 5" stroke="#5b3b22" stroke-width="3" stroke-linecap="round" fill="none" />
    <!-- leaves cluster -->
    <circle cx="12" cy="6" r="8" fill="url(#g1)" opacity="0.98" />
    <circle cx="4" cy="12" r="6" fill="#34d399" opacity="0.95" />
    <circle cx="20" cy="14" r="5" fill="#0f9d58" opacity="0.95" />
  </g>

  <!-- site name ring (small, decorative) -->
  <g transform="translate(0,0)">
    <text x="60" y="110" font-family="Helvetica, Arial, sans-serif" font-size="9" text-anchor="middle" fill="#0e2b1f">Curiosity Institute</text>
  </g>
</svg>
